<svg xmlns="http://www.w3.org/2000/svg" xmlns:xlink="http://www.w3.org/1999/xlink" width="396" zoomAndPan="magnify" viewBox="0 0 297 33.749998" height="45" preserveAspectRatio="xMidYMid meet" version="1.0"><defs><g/><clipPath id="c990cfef55"><path d="M 1.09375 0 L 295.90625 0 L 295.90625 33.5 L 1.09375 33.5 Z M 1.09375 0 " clip-rule="nonzero"/></clipPath><clipPath id="a507da382c"><path d="M 2 4 L 58 4 L 58 29 L 2 29 Z M 2 4 " clip-rule="nonzero"/></clipPath><clipPath id="77b4448c44"><path d="M 29.972656 -17.722656 L 64.191406 16.496094 L 29.972656 50.710938 L -4.246094 16.496094 Z M 29.972656 -17.722656 " clip-rule="nonzero"/></clipPath><clipPath id="23c37d6bdf"><path d="M 29.972656 -17.722656 L 64.191406 16.496094 L 29.972656 50.710938 L -4.246094 16.496094 Z M 29.972656 -17.722656 " clip-rule="nonzero"/></clipPath></defs><g clip-path="url(#c990cfef55)"><path fill="#ffffff" d="M 1.09375 0 L 295.90625 0 L 295.90625 73.703125 L 1.09375 73.703125 Z M 1.09375 0 " fill-opacity="1" fill-rule="nonzero"/><path fill="#ffffff" d="M 1.09375 0 L 295.90625 0 L 295.90625 33.5 L 1.09375 33.5 Z M 1.09375 0 " fill-opacity="1" fill-rule="nonzero"/><path fill="#000000" d="M 1.09375 0 L 295.90625 0 L 295.90625 33.5 L 1.09375 33.5 Z M 1.09375 0 " fill-opacity="1" fill-rule="nonzero"/></g><g clip-path="url(#a507da382c)"><g clip-path="url(#77b4448c44)"><g clip-path="url(#23c37d6bdf)"><path fill="#ffffff" d="M 45.238281 28.703125 L 33.027344 28.699219 C 26.285156 28.703125 20.816406 23.234375 20.820312 16.492188 C 20.816406 15.429688 21 14.417969 21.25 13.4375 L 26.921875 13.4375 C 27.195312 13.4375 27.4375 13.527344 27.6875 13.59375 C 27.214844 14.460938 26.921875 15.4375 26.921875 16.492188 C 26.921875 19.859375 29.664062 22.59375 33.027344 22.59375 L 45.234375 22.59375 C 48.605469 22.59375 51.34375 19.855469 51.339844 16.488281 C 51.34375 13.125 48.605469 10.386719 45.238281 10.386719 L 40.894531 10.386719 C 39.816406 7.941406 38.105469 5.859375 35.984375 4.28125 L 45.238281 4.28125 C 51.980469 4.28125 57.445312 9.746094 57.449219 16.492188 C 57.445312 23.234375 51.980469 28.699219 45.238281 28.703125 Z M 19.058594 22.597656 L 14.710938 22.597656 C 11.347656 22.597656 8.609375 19.855469 8.605469 16.492188 C 8.609375 13.125 11.347656 10.386719 14.714844 10.386719 L 26.921875 10.386719 C 30.292969 10.386719 33.027344 13.125 33.027344 16.492188 C 33.027344 17.542969 32.734375 18.519531 32.265625 19.386719 C 32.515625 19.453125 32.757812 19.542969 33.027344 19.542969 L 38.699219 19.542969 C 38.957031 18.5625 39.132812 17.550781 39.132812 16.492188 C 39.132812 9.75 33.664062 4.28125 26.921875 4.28125 L 14.714844 4.28125 C 7.96875 4.28125 2.503906 9.746094 2.503906 16.492188 C 2.503906 23.234375 7.96875 28.699219 14.710938 28.703125 L 23.964844 28.703125 C 21.84375 27.125 20.132812 25.042969 19.058594 22.597656 Z M 19.058594 22.597656 " fill-opacity="1" fill-rule="nonzero"/></g></g></g><g fill="#ffffff" fill-opacity="1"><g transform="translate(59.451045, 27.743947)"><g><path d="M 15.191406 0.3125 C 23 0.3125 28.355469 -3.378906 29.203125 -10.054688 L 22.605469 -10.054688 C 21.929688 -6.503906 19.210938 -4.949219 15.191406 -4.949219 C 10.570312 -4.949219 7.667969 -7.039062 7.667969 -11.9375 C 7.667969 -16.824219 10.570312 -18.914062 15.191406 -18.914062 C 18.679688 -18.914062 21.191406 -17.75 22.226562 -15.128906 L 28.96875 -15.128906 C 27.632812 -20.988281 22.480469 -24.191406 15.191406 -24.191406 C 6.738281 -24.191406 1.117188 -19.808594 1.117188 -11.9375 C 1.117188 -4.085938 6.738281 0.3125 15.191406 0.3125 Z M 15.191406 0.3125 "/></g></g></g><g fill="#ffffff" fill-opacity="1"><g transform="translate(89.543314, 27.743947)"><g><path d="M 21.601562 0 L 28.574219 0 L 18.960938 -23.863281 L 10.179688 -23.863281 L 0.503906 0 L 7.507812 0 L 9.167969 -4.414062 L 19.941406 -4.414062 Z M 11.082031 -9.503906 L 14.390625 -18.285156 L 14.71875 -18.285156 L 18.027344 -9.503906 Z M 11.082031 -9.503906 "/></g></g></g><g fill="#ffffff" fill-opacity="1"><g transform="translate(118.614708, 27.743947)"><g><path d="M 9.800781 0 L 18.582031 0 L 28.261719 -23.863281 L 21.253906 -23.863281 L 14.375 -4.792969 L 14.042969 -4.792969 L 7.164062 -23.863281 L 0.1875 -23.863281 Z M 9.800781 0 "/></g></g></g><g fill="#ffffff" fill-opacity="1"><g transform="translate(147.057871, 27.743947)"><g><path d="M 21.601562 0 L 28.574219 0 L 18.960938 -23.863281 L 10.179688 -23.863281 L 0.503906 0 L 7.507812 0 L 9.167969 -4.414062 L 19.941406 -4.414062 Z M 11.082031 -9.503906 L 14.390625 -18.285156 L 14.71875 -18.285156 L 18.027344 -9.503906 Z M 11.082031 -9.503906 "/></g></g></g><g fill="#ffffff" fill-opacity="1"><g transform="translate(176.129265, 27.743947)"><g><path d="M 23.320312 -12.613281 C 25.441406 -13.4375 26.4375 -15.082031 26.4375 -17.390625 C 26.4375 -21.332031 23.515625 -23.863281 17.234375 -23.863281 L 2.71875 -23.863281 L 2.71875 0 L 18.632812 0 C 24.804688 0 27.367188 -2.6875 27.367188 -6.785156 C 27.367188 -9.929688 25.847656 -11.710938 23.320312 -12.613281 Z M 17.34375 -18.804688 C 19.496094 -18.804688 20.234375 -17.988281 20.234375 -16.714844 C 20.234375 -15.519531 19.574219 -14.78125 17.34375 -14.78125 L 9.269531 -14.78125 L 9.269531 -18.804688 Z M 17.296875 -5.214844 L 9.269531 -5.214844 L 9.269531 -10.132812 L 17.296875 -10.132812 C 20.3125 -10.132812 20.78125 -8.84375 20.78125 -7.683594 C 20.78125 -6.410156 20.234375 -5.214844 17.296875 -5.214844 Z M 17.296875 -5.214844 "/></g></g></g><g fill="#ffffff" fill-opacity="1"><g transform="translate(204.729485, 27.743947)"><g><path d="M 21.601562 0 L 28.574219 0 L 18.960938 -23.863281 L 10.179688 -23.863281 L 0.503906 0 L 7.507812 0 L 9.167969 -4.414062 L 19.941406 -4.414062 Z M 11.082031 -9.503906 L 14.390625 -18.285156 L 14.71875 -18.285156 L 18.027344 -9.503906 Z M 11.082031 -9.503906 "/></g></g></g><g fill="#ffffff" fill-opacity="1"><g transform="translate(233.800879, 27.743947)"><g><path d="M 20.78125 -23.863281 L 20.78125 -8.136719 L 11.828125 -23.863281 L 2.71875 -23.863281 L 2.71875 0 L 9.457031 0 L 9.457031 -15.851562 L 18.457031 0 L 27.523438 0 L 27.523438 -23.863281 Z M 20.78125 -23.863281 "/></g></g></g><g fill="#ffffff" fill-opacity="1"><g transform="translate(264.034501, 27.743947)"><g><path d="M 16.683594 -12.691406 L 16.683594 -8.453125 L 22.101562 -8.453125 C 20.996094 -6.03125 18.542969 -4.949219 15.191406 -4.949219 C 10.570312 -4.949219 7.667969 -7.039062 7.667969 -11.9375 C 7.667969 -16.824219 10.570312 -18.914062 15.191406 -18.914062 C 18.679688 -18.914062 21.191406 -17.75 22.226562 -15.128906 L 28.96875 -15.128906 C 27.632812 -20.988281 22.480469 -24.191406 15.191406 -24.191406 C 6.738281 -24.191406 1.117188 -19.808594 1.117188 -11.9375 C 1.117188 -4.085938 6.738281 0.3125 15.191406 0.3125 C 19.660156 0.3125 22.386719 -0.894531 24.058594 -3.179688 L 24.960938 0 L 29.203125 0 L 29.203125 -12.691406 Z M 16.683594 -12.691406 "/></g></g></g></svg>