<svg xmlns="http://www.w3.org/2000/svg" xmlns:xlink="http://www.w3.org/1999/xlink" width="396" zoomAndPan="magnify" viewBox="0 0 297 33.749998" height="45" preserveAspectRatio="xMidYMid meet" version="1.0"><defs><g/><clipPath id="09b4b3093a"><path d="M 1.09375 0 L 295.90625 0 L 295.90625 33.5 L 1.09375 33.5 Z M 1.09375 0 " clip-rule="nonzero"/></clipPath><clipPath id="f66e8537d5"><path d="M 3 5 L 56 5 L 56 29 L 3 29 Z M 3 5 " clip-rule="nonzero"/></clipPath><clipPath id="c79c100ceb"><path d="M 29.375 -15.1875 L 61.484375 16.921875 L 29.375 49.035156 L -2.738281 16.921875 Z M 29.375 -15.1875 " clip-rule="nonzero"/></clipPath><clipPath id="d950d27033"><path d="M 29.375 -15.1875 L 61.484375 16.921875 L 29.375 49.035156 L -2.738281 16.921875 Z M 29.375 -15.1875 " clip-rule="nonzero"/></clipPath></defs><g clip-path="url(#09b4b3093a)"><path fill="#ffffff" d="M 1.09375 0 L 295.90625 0 L 295.90625 33.5 L 1.09375 33.5 Z M 1.09375 0 " fill-opacity="1" fill-rule="nonzero"/><path fill="#ffffff" d="M 1.09375 0 L 295.90625 0 L 295.90625 33.5 L 1.09375 33.5 Z M 1.09375 0 " fill-opacity="1" fill-rule="nonzero"/></g><g clip-path="url(#f66e8537d5)"><g clip-path="url(#c79c100ceb)"><g clip-path="url(#d950d27033)"><path fill="#000000" d="M 43.699219 28.378906 L 32.242188 28.378906 C 25.914062 28.378906 20.78125 23.25 20.785156 16.921875 C 20.78125 15.925781 20.953125 14.976562 21.1875 14.054688 L 26.511719 14.054688 C 26.765625 14.054688 26.996094 14.136719 27.230469 14.199219 C 26.785156 15.015625 26.511719 15.929688 26.511719 16.921875 C 26.511719 20.078125 29.085938 22.648438 32.242188 22.648438 L 43.699219 22.648438 C 46.859375 22.648438 49.429688 20.078125 49.429688 16.917969 C 49.429688 13.761719 46.859375 11.191406 43.699219 11.191406 L 39.621094 11.191406 C 38.613281 8.894531 37.003906 6.941406 35.019531 5.460938 L 43.699219 5.460938 C 50.027344 5.460938 55.15625 10.589844 55.160156 16.921875 C 55.15625 23.25 50.027344 28.378906 43.699219 28.378906 Z M 19.132812 22.648438 L 15.054688 22.652344 C 11.894531 22.648438 9.324219 20.078125 9.324219 16.921875 C 9.324219 13.761719 11.894531 11.191406 15.054688 11.191406 L 26.511719 11.191406 C 29.671875 11.191406 32.242188 13.761719 32.242188 16.921875 C 32.242188 17.90625 31.96875 18.824219 31.523438 19.636719 C 31.761719 19.703125 31.988281 19.785156 32.242188 19.785156 L 37.566406 19.785156 C 37.804688 18.867188 37.972656 17.917969 37.96875 16.921875 C 37.972656 10.59375 32.839844 5.460938 26.511719 5.460938 L 15.054688 5.460938 C 8.726562 5.460938 3.597656 10.59375 3.59375 16.921875 C 3.597656 23.25 8.726562 28.378906 15.054688 28.378906 L 23.738281 28.378906 C 21.746094 26.898438 20.140625 24.945312 19.132812 22.648438 Z M 19.132812 22.648438 " fill-opacity="1" fill-rule="nonzero"/></g></g></g><g fill="#000000" fill-opacity="1"><g transform="translate(56.862704, 28.047639)"><g><path d="M 15.355469 0.316406 C 23.25 0.316406 28.664062 -3.414062 29.523438 -10.164062 L 22.851562 -10.164062 C 22.171875 -6.574219 19.421875 -5.003906 15.355469 -5.003906 C 10.6875 -5.003906 7.75 -7.113281 7.75 -12.070312 C 7.75 -17.007812 10.6875 -19.121094 15.355469 -19.121094 C 18.882812 -19.121094 21.421875 -17.945312 22.472656 -15.292969 L 29.285156 -15.292969 C 27.933594 -21.21875 22.726562 -24.457031 15.355469 -24.457031 C 6.8125 -24.457031 1.128906 -20.027344 1.128906 -12.070312 C 1.128906 -4.128906 6.8125 0.316406 15.355469 0.316406 Z M 15.355469 0.316406 "/></g></g></g><g fill="#000000" fill-opacity="1"><g transform="translate(87.284373, 28.047639)"><g><path d="M 21.835938 0 L 28.886719 0 L 19.167969 -24.125 L 10.289062 -24.125 L 0.507812 0 L 7.589844 0 L 9.265625 -4.460938 L 20.160156 -4.460938 Z M 11.203125 -9.609375 L 14.546875 -18.484375 L 14.878906 -18.484375 L 18.222656 -9.609375 Z M 11.203125 -9.609375 "/></g></g></g><g fill="#000000" fill-opacity="1"><g transform="translate(116.673992, 28.047639)"><g><path d="M 9.910156 0 L 18.789062 0 L 28.570312 -24.125 L 21.488281 -24.125 L 14.53125 -4.84375 L 14.199219 -4.84375 L 7.242188 -24.125 L 0.191406 -24.125 Z M 9.910156 0 "/></g></g></g><g fill="#000000" fill-opacity="1"><g transform="translate(145.428503, 28.047639)"><g><path d="M 21.835938 0 L 28.886719 0 L 19.167969 -24.125 L 10.289062 -24.125 L 0.507812 0 L 7.589844 0 L 9.265625 -4.460938 L 20.160156 -4.460938 Z M 11.203125 -9.609375 L 14.546875 -18.484375 L 14.878906 -18.484375 L 18.222656 -9.609375 Z M 11.203125 -9.609375 "/></g></g></g><g fill="#000000" fill-opacity="1"><g transform="translate(174.818121, 28.047639)"><g><path d="M 23.574219 -12.753906 C 25.71875 -13.585938 26.726562 -15.246094 26.726562 -17.582031 C 26.726562 -21.566406 23.773438 -24.125 17.421875 -24.125 L 2.746094 -24.125 L 2.746094 0 L 18.835938 0 C 25.078125 0 27.664062 -2.714844 27.664062 -6.859375 C 27.664062 -10.035156 26.132812 -11.839844 23.574219 -12.753906 Z M 17.53125 -19.007812 C 19.707031 -19.007812 20.453125 -18.183594 20.453125 -16.898438 C 20.453125 -15.691406 19.789062 -14.945312 17.53125 -14.945312 L 9.371094 -14.945312 L 9.371094 -19.007812 Z M 17.484375 -5.273438 L 9.371094 -5.273438 L 9.371094 -10.242188 L 17.484375 -10.242188 C 20.535156 -10.242188 21.011719 -8.941406 21.011719 -7.765625 C 21.011719 -6.480469 20.453125 -5.273438 17.484375 -5.273438 Z M 17.484375 -5.273438 "/></g></g></g><g fill="#000000" fill-opacity="1"><g transform="translate(203.731409, 28.047639)"><g><path d="M 21.835938 0 L 28.886719 0 L 19.167969 -24.125 L 10.289062 -24.125 L 0.507812 0 L 7.589844 0 L 9.265625 -4.460938 L 20.160156 -4.460938 Z M 11.203125 -9.609375 L 14.546875 -18.484375 L 14.878906 -18.484375 L 18.222656 -9.609375 Z M 11.203125 -9.609375 "/></g></g></g><g fill="#000000" fill-opacity="1"><g transform="translate(233.121028, 28.047639)"><g><path d="M 21.011719 -24.125 L 21.011719 -8.226562 L 11.957031 -24.125 L 2.746094 -24.125 L 2.746094 0 L 9.558594 0 L 9.558594 -16.023438 L 18.660156 0 L 27.824219 0 L 27.824219 -24.125 Z M 21.011719 -24.125 "/></g></g></g><g fill="#000000" fill-opacity="1"><g transform="translate(263.685596, 28.047639)"><g><path d="M 16.867188 -12.832031 L 16.867188 -8.542969 L 22.34375 -8.542969 C 21.226562 -6.097656 18.746094 -5.003906 15.355469 -5.003906 C 10.6875 -5.003906 7.75 -7.113281 7.75 -12.070312 C 7.75 -17.007812 10.6875 -19.121094 15.355469 -19.121094 C 18.882812 -19.121094 21.421875 -17.945312 22.472656 -15.292969 L 29.285156 -15.292969 C 27.933594 -21.21875 22.726562 -24.457031 15.355469 -24.457031 C 6.8125 -24.457031 1.128906 -20.027344 1.128906 -12.070312 C 1.128906 -4.128906 6.8125 0.316406 15.355469 0.316406 C 19.875 0.316406 22.628906 -0.90625 24.320312 -3.214844 L 25.234375 0 L 29.523438 0 L 29.523438 -12.832031 Z M 16.867188 -12.832031 "/></g></g></g></svg>